<svg id="visual" viewBox="0 0 900 600" width="900" height="600" xmlns="http://www.w3.org/2000/svg" xmlns:xlink="http://www.w3.org/1999/xlink" version="1.1"><rect x="0" y="0" width="900" height="600" fill="#1b1c1c"></rect><path d="M350 0L330.7 16.7C311.3 33.3 272.7 66.7 240.3 100C208 133.3 182 166.7 166.8 200C151.7 233.3 147.3 266.7 173 300C198.7 333.3 254.3 366.7 284 400C313.7 433.3 317.3 466.7 311 500C304.7 533.3 288.3 566.7 280.2 583.3L272 600L0 600L0 583.3C0 566.7 0 533.3 0 500C0 466.7 0 433.3 0 400C0 366.7 0 333.3 0 300C0 266.7 0 233.3 0 200C0 166.7 0 133.3 0 100C0 66.7 0 33.3 0 16.7L0 0Z" fill="#442a8b" stroke-linecap="round" stroke-linejoin="miter"></path></svg>