<svg id="visual" viewBox="0 0 900 600" width="900" height="600" xmlns="http://www.w3.org/2000/svg" xmlns:xlink="http://www.w3.org/1999/xlink" version="1.1"><path d="M0 421L12.5 421.3C25 421.7 50 422.3 75 423C100 423.7 125 424.3 150 430.8C175 437.3 200 449.7 225 454.7C250 459.7 275 457.3 300 457C325 456.7 350 458.3 375 461.5C400 464.7 425 469.3 450 475.3C475 481.3 500 488.7 525 477.5C550 466.3 575 436.7 600 431.7C625 426.7 650 446.3 675 461.7C700 477 725 488 750 493C775 498 800 497 825 482C850 467 875 438 887.5 423.5L900 409L900 601L887.5 601C875 601 850 601 825 601C800 601 775 601 750 601C725 601 700 601 675 601C650 601 625 601 600 601C575 601 550 601 525 601C500 601 475 601 450 601C425 601 400 601 375 601C350 601 325 601 300 601C275 601 250 601 225 601C200 601 175 601 150 601C125 601 100 601 75 601C50 601 25 601 12.5 601L0 601Z" fill="#000000"></path><path d="M0 444L12.5 454.5C25 465 50 486 75 496.5C100 507 125 507 150 509C175 511 200 515 225 510.2C250 505.3 275 491.7 300 484.3C325 477 350 476 375 471.2C400 466.3 425 457.7 450 462.3C475 467 500 485 525 488.2C550 491.3 575 479.7 600 482.8C625 486 650 504 675 512.5C700 521 725 520 750 512C775 504 800 489 825 487.2C850 485.3 875 496.7 887.5 502.3L900 508L900 601L887.5 601C875 601 850 601 825 601C800 601 775 601 750 601C725 601 700 601 675 601C650 601 625 601 600 601C575 601 550 601 525 601C500 601 475 601 450 601C425 601 400 601 375 601C350 601 325 601 300 601C275 601 250 601 225 601C200 601 175 601 150 601C125 601 100 601 75 601C50 601 25 601 12.5 601L0 601Z" fill="#3b3b3b"></path><path d="M0 485L12.5 483.3C25 481.7 50 478.3 75 487.5C100 496.7 125 518.3 150 521.8C175 525.3 200 510.7 225 501.3C250 492 275 488 300 491.5C325 495 350 506 375 515C400 524 425 531 450 528C475 525 500 512 525 506.2C550 500.3 575 501.7 600 505C625 508.3 650 513.7 675 510.5C700 507.3 725 495.7 750 497.7C775 499.7 800 515.3 825 522.5C850 529.7 875 528.3 887.5 527.7L900 527L900 601L887.5 601C875 601 850 601 825 601C800 601 775 601 750 601C725 601 700 601 675 601C650 601 625 601 600 601C575 601 550 601 525 601C500 601 475 601 450 601C425 601 400 601 375 601C350 601 325 601 300 601C275 601 250 601 225 601C200 601 175 601 150 601C125 601 100 601 75 601C50 601 25 601 12.5 601L0 601Z" fill="#777777"></path><path d="M0 555L12.5 550C25 545 50 535 75 527.8C100 520.7 125 516.3 150 518C175 519.7 200 527.3 225 526.3C250 525.3 275 515.7 300 511C325 506.3 350 506.7 375 515C400 523.3 425 539.7 450 544.3C475 549 500 542 525 536.7C550 531.3 575 527.7 600 526.3C625 525 650 526 675 531.2C700 536.3 725 545.7 750 548.8C775 552 800 549 825 542.8C850 536.7 875 527.3 887.5 522.7L900 518L900 601L887.5 601C875 601 850 601 825 601C800 601 775 601 750 601C725 601 700 601 675 601C650 601 625 601 600 601C575 601 550 601 525 601C500 601 475 601 450 601C425 601 400 601 375 601C350 601 325 601 300 601C275 601 250 601 225 601C200 601 175 601 150 601C125 601 100 601 75 601C50 601 25 601 12.5 601L0 601Z" fill="#b9b9b9"></path><path d="M0 544L12.5 549.2C25 554.3 50 564.7 75 565.3C100 566 125 557 150 557.3C175 557.7 200 567.3 225 570.3C250 573.3 275 569.7 300 565.3C325 561 350 556 375 552.5C400 549 425 547 450 550.5C475 554 500 563 525 562.5C550 562 575 552 600 548.5C625 545 650 548 675 551.8C700 555.7 725 560.3 750 564.2C775 568 800 571 825 571.7C850 572.3 875 570.7 887.5 569.8L900 569L900 601L887.5 601C875 601 850 601 825 601C800 601 775 601 750 601C725 601 700 601 675 601C650 601 625 601 600 601C575 601 550 601 525 601C500 601 475 601 450 601C425 601 400 601 375 601C350 601 325 601 300 601C275 601 250 601 225 601C200 601 175 601 150 601C125 601 100 601 75 601C50 601 25 601 12.5 601L0 601Z" fill="#ffffff"></path></svg>